# Blender v2.83.0 OBJ File: 'column.blend'
# www.blender.org
mtllib column.mtl
o Cube
v 0.500000 0.500000 -0.500000
v 0.500000 0.000000 -0.500000
v 0.500000 0.500000 0.500000
v 0.500000 0.000000 0.500000
v 0.433774 0.665750 0.367547
v 0.433774 0.665750 -0.367547
v 0.433774 2.600636 0.367547
v 0.433774 2.600636 -0.367547
v 0.528266 2.788211 0.527678
v 0.528266 2.788211 -0.527678
v 0.528266 3.787102 0.527678
v 0.528266 3.787102 -0.527678
v 0.527948 6.437301 0.497282
v 0.446546 6.277743 0.364420
v 0.446546 6.277743 -0.364420
v 0.446546 3.994689 -0.364420
v 0.446546 3.994689 0.364420
v 0.527948 6.437301 -0.497282
v 0.527948 6.774797 -0.497282
v 0.527948 6.774797 0.497282
v 0.433774 2.600636 -0.367547
v 0.528266 3.787102 -0.527678
v 0.528266 2.788211 0.527678
v 0.528266 2.788211 -0.527678
v 0.528266 3.787102 0.527678
v 0.528266 3.787102 -0.527678
v 0.528266 3.787102 -0.527678
v 0.528266 2.921061 -0.387318
v 0.528266 2.921061 0.387318
v 0.528266 3.654252 0.387318
v 0.528266 3.654252 -0.387318
v 0.447597 2.921061 -0.387318
v 0.447597 2.921061 0.387318
v 0.447597 3.654252 0.387318
v 0.447597 3.654252 -0.387318
v 0.447138 2.941614 0.527678
v 0.447138 3.633698 0.527678
v 0.447138 3.633698 -0.527678
v 0.447138 2.941614 -0.527678
v 0.447138 2.941614 0.387318
v 0.447138 3.633698 0.387318
v 0.447138 3.633698 -0.421178
v 0.447138 2.941614 -0.421177
v 0.446546 6.277743 0.121473
v 0.446546 6.277743 -0.121473
v 0.446546 3.994689 0.121473
v 0.446546 3.994689 -0.121473
v 0.527948 6.437301 0.165761
v 0.527948 6.437301 -0.165761
v 0.528266 3.787102 0.175893
v 0.528266 3.787102 -0.175893
v 0.446546 3.994689 0.121473
v 0.446546 3.994689 -0.121473
v 0.528266 3.787102 0.175893
v 0.528266 3.787102 -0.175893
v 0.528266 6.277743 0.121473
v 0.528266 6.277743 -0.121473
v 0.528266 3.994689 0.121473
v 0.528266 3.994689 -0.121473
v 0.500000 0.500000 -0.166667
v 0.500000 0.500000 0.166667
v 0.433774 0.665750 -0.122516
v 0.433774 0.665750 0.122516
v 0.433774 2.600636 -0.122516
v 0.433774 2.600636 0.122516
v 0.528266 2.788211 -0.175892
v 0.528266 2.788211 0.175893
v 0.433774 0.665750 -0.122516
v 0.433774 0.665750 0.122516
v 0.433774 2.600636 -0.122516
v 0.433774 2.600636 0.122516
v 0.528266 0.665750 -0.122516
v 0.528266 0.665750 0.122516
v 0.528266 2.600636 -0.122516
v 0.528266 2.600636 0.122516
v 0.447597 3.056854 -0.243849
v 0.447597 3.056854 0.243849
v 0.447597 3.518459 0.243849
v 0.447597 3.518459 -0.243850
v 0.505210 3.102885 -0.195216
v 0.505210 3.102885 0.195216
v 0.505210 3.472427 0.195216
v 0.505210 3.472427 -0.195216
v 0.527948 6.774797 0.497282
v 0.527948 6.774797 -0.497282
v 0.430341 6.774797 0.384373
v 0.430341 6.774797 -0.384373
v 0.468012 6.705032 0.384373
v 0.468012 6.705032 -0.384373
v -0.500000 0.500000 -0.500000
v -0.500000 0.000000 -0.500000
v -0.500000 0.500000 0.500000
v -0.500000 0.000000 0.500000
v 0.000000 0.500000 -0.500000
v 0.000000 0.000000 -0.500000
v 0.000000 0.500000 0.500000
v 0.000000 0.000000 0.500000
v -0.433774 0.665750 0.367547
v 0.000000 0.665750 0.367547
v -0.433774 0.665750 -0.367547
v 0.000000 0.665750 -0.367547
v -0.433774 2.600636 0.367547
v 0.000000 2.600636 0.367547
v -0.433774 2.600636 -0.367547
v 0.000000 2.600636 -0.367547
v -0.528266 2.788211 0.527678
v 0.000000 2.788211 0.527678
v -0.528266 2.788211 -0.527678
v -0.528266 3.787102 0.527678
v 0.000000 3.787102 0.527678
v -0.528266 3.787102 -0.527678
v 0.000000 3.787102 -0.527678
v -0.527948 6.437301 0.497282
v -0.446546 6.277743 0.364420
v 0.000000 6.277743 0.364420
v -0.446546 6.277743 -0.364420
v 0.000000 6.277743 -0.364420
v 0.000000 3.994689 -0.364420
v 0.000000 6.437301 0.497282
v -0.446546 3.994689 -0.364420
v 0.000000 3.994689 0.364420
v -0.446546 3.994689 0.364420
v -0.527948 6.437301 -0.497282
v 0.000000 6.774797 -0.497282
v -0.527948 6.774797 -0.497282
v 0.000000 6.774797 0.497282
v -0.527948 6.774797 0.497282
v 0.000000 6.437301 -0.497282
v 0.000000 0.665750 -0.367547
v -0.433774 2.600636 -0.367547
v 0.000000 2.600636 -0.367547
v -0.528266 3.787102 -0.527678
v 0.000000 3.787102 -0.527678
v 0.000000 3.994689 -0.364420
v 0.000000 2.788200 -0.527678
v -0.528266 2.788211 0.527678
v 0.000000 2.788211 0.527678
v -0.528266 2.788211 -0.527678
v -0.528266 3.787102 0.527678
v 0.000000 3.787102 0.527678
v -0.528266 3.787102 -0.527678
v -0.528266 3.787102 -0.527678
v 0.000000 3.787102 -0.527678
v 0.000000 2.788200 -0.527678
v -0.528266 2.921061 -0.387318
v -0.528266 2.921061 0.387318
v -0.528266 3.654252 0.387318
v -0.528266 3.654252 -0.387318
v -0.447597 2.921061 -0.387318
v -0.447597 2.921061 0.387318
v -0.447597 3.654252 0.387318
v -0.447597 3.654252 -0.387318
v -0.447138 2.941614 0.527678
v 0.000000 2.941614 0.527678
v -0.447138 3.633698 0.527678
v 0.000000 3.633698 0.527678
v -0.447138 3.633698 -0.527678
v 0.000000 3.633698 -0.527678
v 0.000000 2.941607 -0.527678
v -0.447138 2.941614 -0.527678
v -0.447138 2.941614 0.387318
v 0.000000 2.941614 0.387318
v -0.447138 3.633698 0.387318
v 0.000000 3.633698 0.387318
v -0.447138 3.633698 -0.421178
v 0.000000 3.633698 -0.421178
v 0.000000 2.941607 -0.421177
v -0.447138 2.941614 -0.421177
v -0.446546 6.277743 0.121473
v -0.446546 6.277743 -0.121473
v -0.446546 3.994689 0.121473
v -0.446546 3.994689 -0.121473
v -0.527948 6.437301 0.165761
v -0.527948 6.437301 -0.165761
v -0.528266 3.787102 0.175893
v -0.528266 3.787102 -0.175893
v -0.446546 3.994689 0.121473
v -0.446546 3.994689 -0.121473
v -0.528266 3.787102 0.175893
v -0.528266 3.787102 -0.175893
v -0.528266 6.277743 0.121473
v -0.528266 6.277743 -0.121473
v -0.528266 3.994689 0.121473
v -0.528266 3.994689 -0.121473
v -0.500000 0.500000 -0.166667
v -0.500000 0.500000 0.166667
v -0.433774 0.665750 -0.122516
v -0.433774 0.665750 0.122516
v -0.433774 2.600636 -0.122516
v -0.433774 2.600636 0.122516
v -0.528266 2.788211 -0.175892
v -0.528266 2.788211 0.175893
v -0.433774 0.665750 -0.122516
v -0.433774 0.665750 0.122516
v -0.433774 2.600636 -0.122516
v -0.433774 2.600636 0.122516
v -0.528266 0.665750 -0.122516
v -0.528266 0.665750 0.122516
v -0.528266 2.600636 -0.122516
v -0.528266 2.600636 0.122516
v -0.447597 3.056854 -0.243849
v -0.447597 3.056854 0.243849
v -0.447597 3.518459 0.243849
v -0.447597 3.518459 -0.243850
v -0.505210 3.102885 -0.195216
v -0.505210 3.102885 0.195216
v -0.505210 3.472427 0.195216
v -0.505210 3.472427 -0.195216
v -0.527948 6.774797 0.497282
v 0.000000 6.774797 0.497282
v -0.527948 6.774797 -0.497282
v 0.000000 6.774797 -0.497282
v -0.430341 6.774797 0.384373
v 0.000000 6.774797 0.384373
v -0.430341 6.774797 -0.384373
v 0.000000 6.774797 -0.384373
v -0.468012 6.705032 0.384373
v 0.000000 6.705032 0.384373
v -0.468012 6.705032 -0.384373
v 0.000000 6.705032 -0.384373
vt 0.625000 1.000000
vt 0.625000 0.750000
vt 0.625000 0.750000
vt 0.625000 1.000000
vt 0.375000 0.750000
vt 0.375000 1.000000
vt 0.125000 0.500000
vt 0.375000 0.500000
vt 0.125000 0.750000
vt 0.625000 0.500000
vt 0.625000 0.583333
vt 0.625000 0.666667
vt 0.375000 0.250000
vt 0.625000 0.250000
vt 0.625000 0.500000
vt 0.625000 0.250000
vt 0.625000 0.250000
vt 0.625000 0.500000
vt 0.625000 0.583333
vt 0.625000 0.583333
vt 0.625000 0.750000
vt 0.625000 1.000000
vt 0.000000 0.000000
vt 0.000000 0.000000
vt 0.000000 0.000000
vt 0.000000 0.000000
vt 0.000000 0.000000
vt 0.000000 0.000000
vt 0.000000 0.000000
vt 0.000000 0.000000
vt 0.625000 0.750000
vt 0.625000 1.000000
vt 0.000000 0.000000
vt 0.000000 0.000000
vt 0.000000 0.000000
vt 0.000000 0.000000
vt 0.000000 0.000000
vt 0.000000 0.000000
vt 0.000000 0.000000
vt 0.000000 0.000000
vt 0.625000 0.750000
vt 0.625000 1.000000
vt 0.000000 0.000000
vt 0.000000 0.000000
vt 0.000000 0.000000
vt 0.000000 0.000000
vt 0.000000 0.000000
vt 0.000000 0.000000
vt 0.000000 0.000000
vt 0.000000 0.000000
vt 0.000000 0.000000
vt 0.000000 0.000000
vt 0.000000 0.000000
vt 0.000000 0.000000
vt 0.000000 0.000000
vt 0.000000 0.000000
vt 0.000000 0.000000
vt 0.000000 0.000000
vt 0.000000 0.000000
vt 0.000000 0.000000
vt 0.000000 0.000000
vt 0.625000 0.250000
vt 0.625000 0.500000
vt 0.000000 0.000000
vt 0.000000 0.000000
vt 0.000000 0.000000
vt 0.000000 0.000000
vt 0.000000 0.000000
vt 0.000000 0.000000
vt 0.625000 0.666667
vt 0.625000 0.583333
vt 0.625000 0.500000
vt 0.625000 0.500000
vt 0.625000 0.750000
vt 0.000000 0.000000
vt 0.000000 0.000000
vt 0.625000 0.500000
vt 0.000000 0.000000
vt 0.000000 0.000000
vt 0.000000 0.000000
vt 0.000000 0.000000
vt 0.000000 0.000000
vt 0.000000 0.000000
vt 0.000000 0.000000
vt 0.000000 0.000000
vt 0.000000 0.000000
vt 0.000000 0.000000
vt 0.625000 0.500000
vt 0.625000 0.750000
vt 0.625000 1.000000
vt 0.625000 0.750000
vt 0.625000 0.750000
vt 0.625000 1.000000
vt 0.000000 0.000000
vt 0.000000 0.000000
vt 0.000000 0.000000
vt 0.000000 0.000000
vt 0.000000 0.000000
vt 0.000000 0.000000
vt 0.000000 0.000000
vt 0.000000 0.000000
vt 0.000000 0.000000
vt 0.000000 0.000000
vt 0.000000 0.000000
vt 0.000000 0.000000
vt 0.000000 0.000000
vt 0.000000 0.000000
vt 0.000000 0.000000
vt 0.000000 0.000000
vt 0.000000 0.000000
vt 0.000000 0.000000
vt 0.000000 0.000000
vt 0.625000 0.666667
vt 0.625000 0.666667
vt 0.625000 0.583333
vt 0.625000 0.583333
vt 0.000000 0.000000
vt 0.000000 0.000000
vt 0.000000 0.000000
vt 0.625000 0.666667
vt 0.625000 0.666667
vt 0.625000 0.666667
vt 0.625000 0.666667
vt 0.000000 0.000000
vt 0.000000 0.000000
vt 0.000000 0.000000
vt 0.000000 0.000000
vt 0.000000 0.000000
vt 0.000000 0.000000
vt 0.000000 0.000000
vt 0.625000 0.583333
vt 0.625000 0.583333
vt 0.000000 0.000000
vt 0.000000 0.000000
vt 0.000000 0.000000
vt 0.000000 0.000000
vt 0.000000 0.000000
vt 0.000000 0.000000
vt 0.000000 0.000000
vt 0.000000 0.000000
vt 0.000000 0.000000
vt 0.625000 0.750000
vt 0.625000 0.500000
vt 0.000000 0.000000
vt 0.625000 0.750000
vt 0.625000 0.500000
vt 0.000000 0.000000
vt 0.000000 0.000000
vt 0.000000 0.000000
vt 0.000000 0.000000
vt 0.000000 0.000000
vt 0.000000 0.000000
vt 0.000000 0.000000
vt 0.000000 0.000000
vt 0.000000 0.000000
vt 0.000000 0.000000
vt 0.625000 0.750000
vt 0.625000 0.750000
vt 0.375000 0.750000
vt 0.375000 0.500000
vt 0.625000 0.666667
vt 0.625000 0.583333
vt 0.625000 0.500000
vt 0.625000 0.500000
vt 0.625000 0.500000
vt 0.625000 0.583333
vt 0.625000 0.583333
vt 0.625000 0.750000
vt 0.000000 0.000000
vt 0.000000 0.000000
vt 0.000000 0.000000
vt 0.000000 0.000000
vt 0.000000 0.000000
vt 0.000000 0.000000
vt 0.625000 0.750000
vt 0.000000 0.000000
vt 0.000000 0.000000
vt 0.000000 0.000000
vt 0.000000 0.000000
vt 0.000000 0.000000
vt 0.000000 0.000000
vt 0.625000 0.750000
vt 0.000000 0.000000
vt 0.000000 0.000000
vt 0.000000 0.000000
vt 0.000000 0.000000
vt 0.000000 0.000000
vt 0.000000 0.000000
vt 0.000000 0.000000
vt 0.000000 0.000000
vt 0.000000 0.000000
vt 0.000000 0.000000
vt 0.000000 0.000000
vt 0.625000 0.250000
vt 0.625000 0.500000
vt 0.000000 0.000000
vt 0.000000 0.000000
vt 0.000000 0.000000
vt 0.000000 0.000000
vt 0.625000 0.750000
vt 0.625000 0.500000
vt 0.625000 0.500000
vt 0.625000 0.583333
vt 0.625000 0.666667
vt 0.000000 0.000000
vt 0.625000 0.500000
vt 0.000000 0.000000
vt 0.000000 0.000000
vt 0.000000 0.000000
vt 0.000000 0.000000
vt 0.000000 0.000000
vt 0.000000 0.000000
vt 0.000000 0.000000
vt 0.000000 0.000000
vt 0.000000 0.000000
vt 0.625000 0.750000
vt 0.625000 0.500000
vt 0.625000 0.750000
vt 0.625000 0.750000
vt 0.000000 0.000000
vt 0.000000 0.000000
vt 0.000000 0.000000
vt 0.000000 0.000000
vt 0.000000 0.000000
vt 0.000000 0.000000
vt 0.000000 0.000000
vt 0.000000 0.000000
vt 0.000000 0.000000
vt 0.000000 0.000000
vt 0.000000 0.000000
vt 0.000000 0.000000
vt 0.000000 0.000000
vt 0.000000 0.000000
vt 0.625000 0.666667
vt 0.625000 0.666667
vt 0.625000 0.583333
vt 0.625000 0.583333
vt 0.000000 0.000000
vt 0.000000 0.000000
vt 0.000000 0.000000
vt 0.625000 0.666667
vt 0.625000 0.666667
vt 0.625000 0.666667
vt 0.625000 0.666667
vt 0.000000 0.000000
vt 0.000000 0.000000
vt 0.000000 0.000000
vt 0.000000 0.000000
vt 0.000000 0.000000
vt 0.000000 0.000000
vt 0.000000 0.000000
vt 0.625000 0.583333
vt 0.625000 0.583333
vt 0.000000 0.000000
vt 0.000000 0.000000
vt 0.000000 0.000000
vt 0.000000 0.000000
vt 0.000000 0.000000
vt 0.000000 0.000000
vt 0.000000 0.000000
vt 0.000000 0.000000
vt 0.000000 0.000000
vt 0.625000 0.750000
vt 0.625000 0.500000
vt 0.000000 0.000000
vt 0.625000 0.500000
vt 0.625000 0.750000
vt 0.000000 0.000000
vt 0.000000 0.000000
vt 0.000000 0.000000
vt 0.000000 0.000000
vt 0.000000 0.000000
vn 0.0000 0.6243 0.7812
vn 0.0000 0.0000 1.0000
vn 0.0000 -1.0000 0.0000
vn 1.0000 -0.0000 0.0000
vn 0.0000 0.0000 -1.0000
vn 0.9286 0.3710 0.0000
vn 0.0000 0.6243 -0.7812
vn 0.0000 0.6182 0.7860
vn 0.8931 -0.4499 0.0000
vn 0.0000 -0.6493 0.7606
vn -0.9305 -0.3663 0.0000
vn 0.0000 0.6182 -0.7860
vn 0.0000 -0.6399 -0.7685
vn 0.8908 -0.4544 0.0000
vn 0.0000 -0.6399 0.7685
vn 0.0000 -0.6493 -0.7605
vn 0.7075 0.0000 0.7067
vn -0.0000 1.0000 0.0000
vn -1.0000 0.0000 0.0000
vn 0.0000 -0.2675 0.9636
vn 0.0000 0.2536 -0.9673
vn 0.9305 0.3663 0.0000
vn 0.0000 0.2536 0.9673
vn 0.0000 0.1240 0.9923
vn 0.0000 0.0933 -0.9956
vn 0.0000 -0.2675 -0.9636
vn 1.0000 0.0020 0.0000
vn 0.0000 0.2574 -0.9663
vn 0.9858 -0.1681 0.0000
vn 0.0000 -0.2574 -0.9663
vn 0.0000 0.2737 -0.9618
vn 0.0000 0.2737 0.9618
vn 0.6450 -0.0000 -0.7641
vn 0.6242 -0.7813 0.0000
vn 0.6242 0.7813 0.0000
vn 0.6450 0.0000 0.7641
vn -0.8799 -0.4751 0.0000
vn -0.9286 0.3710 0.0000
vn -0.8931 -0.4499 0.0000
vn 0.9305 -0.3663 0.0000
vn -0.8908 -0.4544 0.0000
vn -0.7075 0.0000 0.7067
vn -0.9305 0.3663 0.0000
vn 0.0000 0.1452 0.9894
vn -1.0000 0.0020 0.0000
vn -0.9858 -0.1681 0.0000
vn -0.6450 -0.0000 -0.7641
vn -0.6242 -0.7813 0.0000
vn -0.6242 0.7813 0.0000
vn -0.6450 0.0000 0.7641
vn 0.8799 -0.4751 0.0000
usemtl Material
s off
f 96/1/1 3/2/1 5/3/1 99/4/1
f 4/5/2 3/2/2 96/1/2 97/6/2
f 95/7/3 2/8/3 4/5/3 97/9/3
f 2/8/4 1/10/4 60/11/4 61/12/4 3/2/4 4/5/4
f 95/13/5 94/14/5 1/10/5 2/8/5
f 6/15/5 101/16/5 105/17/5 8/18/5
f 60/11/6 1/10/6 6/15/6 62/19/6
f 1/10/7 94/14/7 101/16/7 6/15/7
f 62/19/4 6/15/4 8/18/4 64/20/4
f 99/4/2 5/3/2 7/21/2 103/22/2
f 110/23/8 11/24/8 17/25/8 121/26/8
f 21/27/9 24/28/9 66/29/9 64/30/9
f 103/22/10 7/21/10 9/31/10 107/32/10
f 47/33/4 16/34/4 15/35/4 45/36/4
f 133/37/2 22/38/2 27/39/2 143/40/2
f 107/32/2 9/31/2 23/41/2 137/42/2
f 25/43/11 17/25/11 46/44/11 50/45/11
f 12/46/12 112/47/12 118/48/12 16/34/12
f 16/34/5 118/48/5 117/49/5 15/35/5
f 15/35/13 117/49/13 128/50/13 18/51/13
f 45/36/14 15/35/14 18/51/14 49/52/14
f 115/53/15 14/54/15 13/55/15 119/56/15
f 121/26/2 17/25/2 14/54/2 115/53/2
f 13/55/4 48/57/4 49/52/4 18/51/4 19/58/4 20/59/4
f 18/51/5 128/50/5 124/60/5 19/58/5
f 119/56/2 13/55/2 20/59/2 126/61/2
f 112/47/2 12/46/2 22/38/2 133/37/2
f 8/18/2 105/17/2 131/62/2 21/63/2
f 131/62/16 135/64/16 10/65/16 21/63/16
f 10/65/17 12/46/17 26/66/17 24/28/17
f 25/43/2 140/67/2 156/68/2 37/69/2
f 23/41/4 67/70/4 66/71/4 24/72/4 28/73/4 29/74/4
f 143/40/5 27/39/5 38/75/5 158/76/5
f 9/31/3 10/77/3 24/72/3 66/71/3 67/70/3 23/41/3
f 11/24/2 110/23/2 140/67/2 25/43/2
f 10/65/18 135/64/18 144/78/18 24/28/18
f 12/46/3 11/24/3 25/43/3 50/45/3 51/79/3 26/66/3
f 22/38/19 10/65/19 24/28/19 27/39/19
f 28/80/2 31/81/2 35/82/2 32/83/2
f 26/66/4 51/79/4 50/45/4 25/43/4 30/84/4 31/81/4
f 24/28/4 26/66/4 31/81/4 28/80/4
f 25/43/4 23/41/4 29/74/4 30/84/4
f 35/82/4 34/85/4 78/86/4 79/87/4
f 29/74/18 28/73/18 32/88/18 33/89/18
f 31/81/3 30/84/3 34/85/3 35/82/3
f 30/84/5 29/74/5 33/89/5 34/85/5
f 154/90/18 36/91/18 40/92/18 162/93/18
f 39/94/18 159/95/18 167/96/18 43/97/18
f 27/39/5 24/28/5 39/94/5 38/75/5
f 23/41/2 25/43/2 37/69/2 36/91/2
f 137/42/2 23/41/2 36/91/2 154/90/2
f 24/28/5 144/78/5 159/95/5 39/94/5
f 164/98/2 162/93/2 40/92/2 41/99/2
f 37/69/3 156/68/3 164/98/3 41/99/3
f 36/91/19 37/69/19 41/99/19 40/92/19
f 166/100/5 42/101/5 43/97/5 167/96/5
f 158/76/3 38/75/3 42/101/3 166/100/3
f 38/75/19 39/94/19 43/97/19 42/101/19
f 19/58/2 124/60/2 212/102/2 85/103/2
f 14/54/14 44/104/14 48/57/14 13/55/14
f 48/57/20 44/104/20 56/105/20
f 17/25/4 46/44/4 44/104/4 14/54/4
f 55/106/21 53/107/21 59/108/21
f 47/33/22 51/79/22 27/39/22 16/34/22
f 50/45/3 51/79/3 55/106/3 54/109/3
f 52/110/23 54/109/23 58/111/23
f 47/33/2 46/44/2 52/110/2 53/107/2
f 46/44/24 50/45/24 54/109/24 52/110/24
f 51/79/25 47/33/25 53/107/25 55/106/25
f 58/111/4 59/108/4 57/112/4 56/105/4
f 58/111/4 54/109/4 55/106/4 59/108/4
f 44/104/2 46/44/2 58/111/2 56/105/2
f 47/33/5 45/36/5 57/112/5 59/108/5
f 45/36/26 49/52/26 57/112/26
f 49/52/27 48/57/27 56/105/27 57/112/27
f 5/3/4 63/113/4 65/114/4 7/21/4
f 62/19/2 64/20/2 70/115/2 68/116/2
f 3/2/6 61/12/6 63/113/6 5/3/6
f 64/30/2 65/117/2 71/118/2 70/119/2
f 71/120/2 69/121/2 73/122/2 75/123/2
f 65/117/9 67/124/9 23/125/9 7/126/9
f 63/127/2 62/128/2 68/129/2 69/130/2
f 65/114/2 63/113/2 69/121/2 71/120/2
f 73/122/4 72/131/4 74/132/4 75/123/4
f 69/130/3 68/129/3 72/133/3 73/134/3
f 68/116/5 70/115/5 74/132/5 72/131/5
f 70/119/18 71/118/18 75/135/18 74/136/18
f 72/133/28 60/137/28 68/129/28
f 60/137/29 72/133/29 73/134/29 61/138/29
f 73/134/30 61/138/30 69/121/30
f 71/120/31 67/124/31 75/123/31
f 66/29/32 70/115/32 74/132/32
f 66/29/19 74/136/19 75/135/19 67/124/19
f 76/139/33 79/87/33 83/140/33 80/141/33
f 34/85/4 33/89/4 77/142/4 78/86/4
f 32/83/4 35/82/4 79/87/4 76/139/4
f 33/89/4 32/88/4 76/143/4 77/142/4
f 82/144/4 81/145/4 80/146/4 83/140/4
f 77/142/34 76/143/34 80/146/34 81/145/34
f 79/87/35 78/86/35 82/144/35 83/140/35
f 78/86/36 77/142/36 81/145/36 82/144/36
f 85/103/18 212/102/18 216/147/18 87/148/18
f 20/59/2 19/58/2 85/103/2 84/149/2
f 126/61/2 20/59/2 84/149/2 210/150/2
f 86/151/37 87/148/37 89/152/37 88/153/37
f 210/150/18 84/149/18 86/151/18 214/154/18
f 84/149/18 85/103/18 87/148/18 86/151/18
f 218/155/18 88/153/18 89/152/18 220/156/18
f 87/148/2 216/147/2 220/156/2 89/152/2
f 214/154/5 86/151/5 88/153/5 218/155/5
f 96/1/1 99/4/1 98/157/1 92/158/1
f 93/159/2 97/6/2 96/1/2 92/158/2
f 95/7/3 97/9/3 93/159/3 91/160/3
f 91/160/19 93/159/19 92/158/19 186/161/19 185/162/19 90/163/19
f 95/13/5 91/160/5 90/163/5 94/14/5
f 100/164/5 104/165/5 105/17/5 101/16/5
f 185/162/38 187/166/38 100/164/38 90/163/38
f 90/163/7 100/164/7 101/16/7 94/14/7
f 187/166/19 189/167/19 104/165/19 100/164/19
f 99/4/2 103/22/2 102/168/2 98/157/2
f 110/23/8 121/26/8 122/169/8 109/170/8
f 130/171/39 189/172/39 191/173/39 138/174/39
f 103/22/10 107/32/10 106/175/10 102/168/10
f 172/176/19 170/177/19 116/178/19 120/179/19
f 133/37/2 143/40/2 142/180/2 132/181/2
f 107/32/2 137/42/2 136/182/2 106/175/2
f 139/183/40 175/184/40 171/185/40 122/169/40
f 111/186/12 120/179/12 118/48/12 112/47/12
f 120/179/5 116/178/5 117/49/5 118/48/5
f 116/178/13 123/187/13 128/50/13 117/49/13
f 170/177/41 174/188/41 123/187/41 116/178/41
f 115/53/15 119/56/15 113/189/15 114/190/15
f 121/26/2 115/53/2 114/190/2 122/169/2
f 113/189/19 127/191/19 125/192/19 123/187/19 174/188/19 173/193/19
f 123/187/5 125/192/5 124/60/5 128/50/5
f 119/56/2 126/61/2 127/191/2 113/189/2
f 105/17/2 131/62/2 129/194/2 101/16/2
f 112/47/5 133/37/5 132/181/5 111/186/5
f 104/165/2 130/195/2 131/62/2 105/17/2
f 118/48/2 134/196/2 133/37/2 112/47/2
f 131/62/16 130/195/16 108/197/16 135/64/16
f 108/197/42 138/174/42 141/198/42 111/186/42
f 139/183/2 155/199/2 156/68/2 140/67/2
f 136/182/19 146/200/19 145/201/19 138/202/19 191/203/19 192/204/19
f 143/40/5 158/76/5 157/205/5 142/180/5
f 106/175/3 136/182/3 192/204/3 191/203/3 138/202/3 108/206/3
f 109/170/2 139/183/2 140/67/2 110/23/2
f 108/197/18 138/174/18 144/78/18 135/64/18
f 111/186/3 141/198/3 176/207/3 175/184/3 139/183/3 109/170/3
f 132/181/4 142/180/4 138/174/4 108/197/4
f 145/208/2 149/209/2 152/210/2 148/211/2
f 141/198/19 148/211/19 147/212/19 139/183/19 175/184/19 176/207/19
f 138/174/19 145/208/19 148/211/19 141/198/19
f 139/183/19 147/212/19 146/200/19 136/182/19
f 152/210/19 204/213/19 203/214/19 151/215/19
f 146/200/18 150/216/18 149/217/18 145/201/18
f 148/211/3 152/210/3 151/215/3 147/212/3
f 147/212/5 151/215/5 150/216/5 146/200/5
f 154/90/18 162/93/18 161/218/18 153/219/18
f 160/220/18 168/221/18 167/96/18 159/95/18
f 142/180/5 157/205/5 160/220/5 138/174/5
f 136/182/2 153/219/2 155/199/2 139/183/2
f 137/42/2 154/90/2 153/219/2 136/182/2
f 138/174/5 160/220/5 159/95/5 144/78/5
f 164/98/2 163/222/2 161/218/2 162/93/2
f 155/199/3 163/222/3 164/98/3 156/68/3
f 153/219/4 161/218/4 163/222/4 155/199/4
f 166/100/5 167/96/5 168/221/5 165/223/5
f 158/76/3 166/100/3 165/223/3 157/205/3
f 157/205/4 165/223/4 168/221/4 160/220/4
f 125/192/2 211/224/2 212/102/2 124/60/2
f 114/190/41 113/189/41 173/193/41 169/225/41
f 173/193/20 181/226/20 169/225/20
f 122/169/19 114/190/19 169/225/19 171/185/19
f 180/227/21 184/228/21 178/229/21
f 172/176/43 120/179/43 142/180/43 176/207/43
f 175/184/3 179/230/3 180/227/3 176/207/3
f 177/231/23 183/232/23 179/230/23
f 172/176/2 178/229/2 177/231/2 171/185/2
f 171/185/44 177/231/44 179/230/44 175/184/44
f 176/207/25 180/227/25 178/229/25 172/176/25
f 183/232/19 181/226/19 182/233/19 184/228/19
f 183/232/19 184/228/19 180/227/19 179/230/19
f 169/225/2 181/226/2 183/232/2 171/185/2
f 172/176/5 184/228/5 182/233/5 170/177/5
f 170/177/26 182/233/26 174/188/26
f 174/188/45 182/233/45 181/226/45 173/193/45
f 98/157/19 102/168/19 190/234/19 188/235/19
f 187/166/2 193/236/2 195/237/2 189/167/2
f 92/158/38 98/157/38 188/235/38 186/161/38
f 189/172/2 195/238/2 196/239/2 190/240/2
f 196/241/2 200/242/2 198/243/2 194/244/2
f 190/240/39 102/245/39 136/246/39 192/247/39
f 188/248/2 194/249/2 193/250/2 187/251/2
f 190/234/2 196/241/2 194/244/2 188/235/2
f 198/243/19 200/242/19 199/252/19 197/253/19
f 194/249/3 198/254/3 197/255/3 193/250/3
f 193/236/5 197/253/5 199/252/5 195/237/5
f 195/238/18 199/256/18 200/257/18 196/239/18
f 197/255/28 193/250/28 185/258/28
f 185/258/46 186/259/46 198/254/46 197/255/46
f 198/254/30 194/244/30 186/259/30
f 196/241/31 200/242/31 192/247/31
f 191/173/32 199/252/32 195/237/32
f 191/173/4 192/247/4 200/257/4 199/256/4
f 201/260/47 205/261/47 208/262/47 204/213/47
f 151/215/19 203/214/19 202/263/19 150/216/19
f 149/209/19 201/260/19 204/213/19 152/210/19
f 150/216/19 202/263/19 201/264/19 149/217/19
f 207/265/19 208/262/19 205/266/19 206/267/19
f 202/263/48 206/267/48 205/266/48 201/264/48
f 204/213/49 208/262/49 207/265/49 203/214/49
f 203/214/50 207/265/50 206/267/50 202/263/50
f 211/224/18 215/268/18 216/147/18 212/102/18
f 127/191/2 209/269/2 211/224/2 125/192/2
f 126/61/2 210/150/2 209/269/2 127/191/2
f 213/270/51 217/271/51 219/272/51 215/268/51
f 210/150/18 214/154/18 213/270/18 209/269/18
f 209/269/18 213/270/18 215/268/18 211/224/18
f 218/155/18 220/156/18 219/272/18 217/271/18
f 215/268/2 219/272/2 220/156/2 216/147/2
f 214/154/5 218/155/5 217/271/5 213/270/5
